<?xml version="1.0" encoding="utf-8"?><svg xmlns="http://www.w3.org/2000/svg" xmlns:xlink="http://www.w3.org/1999/xlink"><symbol fill="none" viewBox="0 0 314 176" id="97c09fb9-3121-48de-90a4-e415528a71a0" xmlns="http://www.w3.org/2000/svg"><rect width="278" height="176" x=".5" fill="#fff" rx="12"/><text xml:space="preserve" fill="#3b91b2" font-family="Inter" font-size="7" letter-spacing="0em" style="white-space:pre"><tspan x="13" y="16.546">🔹 If you parse the string back
</tspan><tspan x="13" y="24.546">
</tspan><tspan x="13" y="32.545">If you load that string back in JavaScript and print it, you get the 
</tspan><tspan x="13" y="40.545">exact original code:
</tspan><tspan x="13" y="48.545">---svgtitle---
</tspan><tspan x="13" y="56.545">📌 codeToString.js</tspan></text><rect width="253" height="88" x="13" y="73" fill="#161313" rx="12"/><text xml:space="preserve" fill="#ccc" font-family="Inter" font-size="7" letter-spacing="0em" style="white-space:pre"><tspan x="39.382" y="87.546"> fs </tspan><tspan x="53.956" y="87.546"> </tspan><tspan x="21" y="95.546">
</tspan><tspan x="39.382" y="111.545"> savedString </tspan><tspan x="87.213" y="111.545"> fs</tspan><tspan x="181.884" y="111.545"> </tspan><tspan x="21" y="119.545">
</tspan><tspan x="39.382" y="135.545"> code </tspan><tspan x="64.442" y="135.545"> JSON</tspan><tspan x="108.288" y="135.545">savedString</tspan><tspan x="21" y="143.545">
</tspan><tspan x="21" y="151.545">console</tspan><tspan x="61.236" y="151.545">code</tspan></text><text xml:space="preserve" fill="#8099cc" font-family="Inter" font-size="7" letter-spacing="0em" style="white-space:pre"><tspan x="21" y="87.546">const</tspan><tspan x="21" y="111.545">const</tspan><tspan x="21" y="135.545">const</tspan></text><text xml:space="preserve" fill="#cc9980" font-family="Inter" font-size="7" letter-spacing="0em" style="white-space:pre"><tspan x="81.58" y="87.546">"fs"</tspan><tspan x="142.393" y="111.545">"output</tspan><tspan x="177.673" y="111.545">"</tspan><tspan x="183.853" y="111.545">"utf8"</tspan></text><text xml:space="preserve" fill="#80b380" font-family="Inter" font-size="7" letter-spacing="0em" style="white-space:pre"><tspan x="25.99" y="103.545"> Read back the string from output</tspan><tspan x="25.99" y="127.545"> Parse it back into normal code text
</tspan></text><text xml:space="preserve" fill="#80b3b3" font-family="Inter" font-size="7" letter-spacing="0em" style="white-space:pre"><tspan x="49.342" y="87.546">=</tspan><tspan x="21" y="103.545">//</tspan><tspan x="82.599" y="111.545">=</tspan><tspan x="21" y="127.545">//</tspan><tspan x="59.828" y="135.545">=</tspan></text><text xml:space="preserve" fill="#b380b3" font-family="Inter" font-size="7" letter-spacing="0em" style="white-space:pre"><tspan x="79.044" y="87.546">(</tspan><tspan x="93.249" y="87.546">);
</tspan><tspan x="139.856" y="111.545">(</tspan><tspan x="179.922" y="111.545">,</tspan><tspan x="202.945" y="111.545">);
</tspan><tspan x="105.752" y="135.545">(</tspan><tspan x="147.567" y="135.545">);
</tspan><tspan x="58.782" y="151.545">(</tspan><tspan x="77.745" y="151.545">);</tspan></text><text xml:space="preserve" fill="#80cccc" font-family="Inter" font-size="7" letter-spacing="0em" style="white-space:pre"><tspan x="55.925" y="87.546">require</tspan><tspan x="137.211" y="103.545">.txt
</tspan><tspan x="95.204" y="111.545">.readFileSync</tspan><tspan x="166.879" y="111.545">.txt</tspan><tspan x="85.278" y="135.545">.parse</tspan><tspan x="46.751" y="151.545">.log</tspan></text></symbol><symbol fill="none" viewBox="0 0 314 360" id="f916d299-0f4f-46b7-a1fc-28606250b59a" xmlns="http://www.w3.org/2000/svg"><rect width="278" height="360" x=".5" fill="#fff" rx="12"/><text xml:space="preserve" fill="#3b91b2" font-family="Inter" font-size="7" letter-spacing="0em" style="white-space:pre"><tspan x="13" y="16.546">🔹 How it works
</tspan><tspan x="13" y="24.546">
</tspan><tspan x="13" y="32.545">Reads your code file (example.js or index.html)
</tspan><tspan x="13" y="40.545">
</tspan><tspan x="13" y="48.545">Converts it into a string literal with all spaces/newlines preserved
</tspan><tspan x="13" y="56.545">
</tspan><tspan x="13" y="64.546">Saves that string inside output.txt</tspan></text><rect width="253" height="264" x="13" y="81" fill="#161313" rx="12"/><text xml:space="preserve" fill="#ccc" font-family="Inter" font-size="7" letter-spacing="0em" style="white-space:pre"><tspan x="39.382" y="95.546"> fs </tspan><tspan x="53.956" y="95.546"> </tspan><tspan x="21" y="103.545">
</tspan><tspan x="48.07" y="159.545"> </tspan><tspan x="96.476" y="159.545">inputPath</tspan><tspan x="130.3" y="159.545"> outputPath</tspan><tspan x="171.698" y="159.545"> </tspan><tspan x="21" y="167.545">  </tspan><tspan x="34.098" y="167.545"> </tspan><tspan x="21" y="175.545">    </tspan><tspan x="21" y="183.545">    </tspan><tspan x="47.257" y="183.545"> code </tspan><tspan x="72.317" y="183.545"> fs</tspan><tspan x="127.497" y="183.545">inputPath</tspan><tspan x="161.321" y="183.545"> </tspan><tspan x="21" y="191.545">
</tspan><tspan x="21" y="199.545">    </tspan><tspan x="21" y="207.545">    </tspan><tspan x="47.257" y="207.545"> safeString </tspan><tspan x="89.482" y="207.545"> JSON</tspan><tspan x="141.606" y="207.545">code</tspan><tspan x="21" y="215.545">
</tspan><tspan x="21" y="223.545">    </tspan><tspan x="21" y="231.545">    fs</tspan><tspan x="83.679" y="231.545">outputPath</tspan><tspan x="122.534" y="231.545"> safeString</tspan><tspan x="160.139" y="231.545"> </tspan><tspan x="21" y="239.545">
</tspan><tspan x="21" y="247.545">    console</tspan><tspan x="69.193" y="247.545">`✅ Stringified code saved to</tspan><tspan x="166.209" y="247.545"> $</tspan><tspan x="175.096" y="247.545">outputPath</tspan><tspan x="214.525" y="247.545">`</tspan><tspan x="21" y="255.545">  </tspan><tspan x="27.474" y="255.545"> </tspan><tspan x="52.268" y="255.545">err</tspan><tspan x="64.087" y="255.545"> </tspan><tspan x="21" y="263.545">    console</tspan><tspan x="109.026" y="263.545"> err</tspan><tspan x="21" y="271.545">  </tspan><tspan x="21" y="287.545">
</tspan><tspan x="39.382" y="303.545"> inputFile </tspan><tspan x="76.152" y="303.545"> </tspan><tspan x="120.757" y="303.545">   </tspan><tspan x="39.382" y="311.545"> outputFile </tspan><tspan x="81.184" y="311.545"> </tspan><tspan x="123.218" y="311.545">  </tspan><tspan x="21" y="327.545">
</tspan><tspan x="67.436" y="335.545">inputFile</tspan><tspan x="97.617" y="335.545"> outputFile</tspan></text><text xml:space="preserve" fill="#8099cc" font-family="Inter" font-size="7" letter-spacing="0em" style="white-space:pre"><tspan x="21" y="95.546">const</tspan><tspan x="21" y="159.545">function</tspan><tspan x="24.938" y="167.545">try</tspan><tspan x="28.875" y="183.545">const</tspan><tspan x="28.875" y="207.545">const</tspan><tspan x="21" y="303.545">const</tspan><tspan x="21" y="311.545">const</tspan></text><text xml:space="preserve" fill="#cc9980" font-family="Inter" font-size="7" letter-spacing="0em" style="white-space:pre"><tspan x="81.58" y="95.546">"fs"</tspan><tspan x="163.29" y="183.545">"utf8"</tspan><tspan x="162.107" y="231.545">"utf8"</tspan><tspan x="75.038" y="263.545">"❌ Error</tspan><tspan x="104.815" y="263.545">"</tspan><tspan x="78.121" y="303.545">"example</tspan><tspan x="115.972" y="303.545">"</tspan><tspan x="83.152" y="311.545">"output</tspan><tspan x="118.433" y="311.545">"</tspan></text><text xml:space="preserve" fill="#80b380" font-family="Inter" font-size="7" letter-spacing="0em" style="white-space:pre"><tspan x="21" y="119.545"> </tspan><tspan x="26.469" y="119.545"> Convert a code file into a safe string and save it
</tspan><tspan x="21" y="127.545"> </tspan><tspan x="26.469" y="127.545"> @param </tspan><tspan x="60.341" y="127.545">string</tspan><tspan x="81.703" y="127.545"> inputPath </tspan><tspan x="120.723" y="127.545"> Path to the code file
</tspan><tspan x="21" y="135.545"> </tspan><tspan x="26.469" y="135.545"> @param </tspan><tspan x="60.341" y="135.545">string</tspan><tspan x="81.703" y="135.545"> outputPath </tspan><tspan x="125.754" y="135.545"> Path where the stringified code will 
</tspan><tspan x="21" y="143.545">be saved
</tspan><tspan x="21" y="151.545"> </tspan><tspan x="33.865" y="175.545"> Read original code
</tspan><tspan x="33.865" y="199.545"> Convert to safe string
</tspan><tspan x="33.865" y="223.545"> Write the safe string into a new file
</tspan><tspan x="25.99" y="295.545"> Example usage
</tspan><tspan x="131.653" y="303.545"> change this to your file
</tspan><tspan x="132.146" y="311.545"> change if you want a different 
</tspan></text><text xml:space="preserve" fill="#80b3b3" font-family="Inter" font-size="7" letter-spacing="0em" style="white-space:pre"><tspan x="49.342" y="95.546">=</tspan><tspan x="21" y="111.545">/**
</tspan><tspan x="22.969" y="119.545">*</tspan><tspan x="22.969" y="127.545">*</tspan><tspan x="117.503" y="127.545">-</tspan><tspan x="22.969" y="135.545">*</tspan><tspan x="122.534" y="135.545">-</tspan><tspan x="22.969" y="151.545">*/
</tspan><tspan x="28.875" y="175.545">//</tspan><tspan x="67.703" y="183.545">=</tspan><tspan x="28.875" y="199.545">//</tspan><tspan x="84.868" y="207.545">=</tspan><tspan x="28.875" y="223.545">//</tspan><tspan x="21" y="295.545">//</tspan><tspan x="71.538" y="303.545">=</tspan><tspan x="126.663" y="303.545">//</tspan><tspan x="76.569" y="311.545">=</tspan><tspan x="127.155" y="311.545">//</tspan></text><text xml:space="preserve" fill="#b380b3" font-family="Inter" font-size="7" letter-spacing="0em" style="white-space:pre"><tspan x="79.044" y="95.546">(</tspan><tspan x="93.249" y="95.546">);
</tspan><tspan x="57.805" y="127.545">{</tspan><tspan x="79.167" y="127.545">}</tspan><tspan x="57.805" y="135.545">{</tspan><tspan x="79.167" y="135.545">}</tspan><tspan x="93.939" y="159.545">(</tspan><tspan x="128.338" y="159.545">,</tspan><tspan x="169.162" y="159.545">)</tspan><tspan x="173.667" y="159.545">{
</tspan><tspan x="36.066" y="167.545">{
</tspan><tspan x="124.961" y="183.545">(</tspan><tspan x="159.359" y="183.545">,</tspan><tspan x="182.383" y="183.545">);
</tspan><tspan x="139.152" y="207.545">(</tspan><tspan x="158.115" y="207.545">);
</tspan><tspan x="81.225" y="231.545">(</tspan><tspan x="120.572" y="231.545">,</tspan><tspan x="158.177" y="231.545">,</tspan><tspan x="181.2" y="231.545">);
</tspan><tspan x="66.657" y="247.545">(</tspan><tspan x="164.281" y="247.545">:</tspan><tspan x="172.642" y="247.545">{</tspan><tspan x="211.989" y="247.545">}</tspan><tspan x="218.005" y="247.545">);
</tspan><tspan x="24.938" y="255.545">}</tspan><tspan x="49.813" y="255.545">(</tspan><tspan x="61.551" y="255.545">)</tspan><tspan x="66.056" y="255.545">{
</tspan><tspan x="72.502" y="263.545">(</tspan><tspan x="102.888" y="263.545">:</tspan><tspan x="107.064" y="263.545">,</tspan><tspan x="151.525" y="263.545">);
</tspan><tspan x="24.938" y="271.545">}
</tspan><tspan x="21" y="279.545">}
</tspan><tspan x="118.795" y="303.545">;</tspan><tspan x="121.256" y="311.545">;</tspan><tspan x="64.9" y="335.545">(</tspan><tspan x="95.655" y="335.545">,</tspan><tspan x="132.836" y="335.545">);</tspan></text><text xml:space="preserve" fill="#80cccc" font-family="Inter" font-size="7" letter-spacing="0em" style="white-space:pre"><tspan x="55.925" y="95.546">require</tspan><tspan x="50.039" y="159.545">codeToString</tspan><tspan x="80.309" y="183.545">.readFileSync</tspan><tspan x="110.318" y="207.545">.stringify</tspan><tspan x="34.898" y="231.545">.writeFileSync</tspan><tspan x="54.626" y="247.545">.log</tspan><tspan x="29.442" y="255.545">catch </tspan><tspan x="54.626" y="263.545">.error</tspan><tspan x="119.841" y="263.545">.message</tspan><tspan x="108.726" y="303.545">.js</tspan><tspan x="107.639" y="311.545">.txt</tspan><tspan x="21" y="335.545">codeToString</tspan></text><text xml:space="preserve" fill="#b3b380" font-family="Inter" font-size="7" letter-spacing="0em" style="white-space:pre"><tspan x="21" y="319.545">name
</tspan></text></symbol></svg>